<svg xmlns="http://www.w3.org/2000/svg" viewBox="0 0 96 96"><g id="icon"><path d="M17.34,82.42c-5.11,0-10.3-1-13.06-3.08a4.48,4.48,0,0,1-2-3.62,15.09,15.09,0,0,1,8.28-13.5.75.75,0,1,1,.68,1.34A13.58,13.58,0,0,0,3.75,75.72a3.08,3.08,0,0,0,1.44,2.43c3.67,2.8,13.6,3.66,20.42,1.78a.75.75,0,0,1,.93.52.76.76,0,0,1-.53.93A34.06,34.06,0,0,1,17.34,82.42Z"/><path d="M30.23,70a.75.75,0,0,1-.67-.41,13.8,13.8,0,0,0-6-6,.75.75,0,1,1,.68-1.34A15.3,15.3,0,0,1,30.9,68.9a.75.75,0,0,1-.33,1A.71.71,0,0,1,30.23,70Z"/><path d="M66.35,69a.69.69,0,0,1-.39-.12.74.74,0,0,1-.25-1,15.21,15.21,0,0,1,6.05-5.59.75.75,0,0,1,.68,1.34,13.63,13.63,0,0,0-5.45,5A.75.75,0,0,1,66.35,69Z"/><path d="M78.58,82.42a35.33,35.33,0,0,1-7-.67.75.75,0,0,1,.3-1.47c7,1.44,15.88.39,19.11-2.25a3,3,0,0,0,1.29-2.31,13.58,13.58,0,0,0-7.46-12.16.75.75,0,1,1,.68-1.34,15.09,15.09,0,0,1,8.28,13.5,4.41,4.41,0,0,1-1.84,3.47C89.21,81.39,83.83,82.42,78.58,82.42Z"/><path d="M48.7,93.21a48.19,48.19,0,0,1-16.07-2.43c-5-1.85-7.68-4.56-7.68-7.84A23.63,23.63,0,0,1,38,61.77a.75.75,0,1,1,.68,1.34A22.14,22.14,0,0,0,26.45,82.94c0,5.76,11.19,8.77,22.25,8.77S71,88.7,71,82.94A22.14,22.14,0,0,0,58.77,63.11a.75.75,0,0,1,.68-1.34,23.63,23.63,0,0,1,13,21.17C72.45,90,60.14,93.21,48.7,93.21Z"/><path d="M31.7,36.22a2.81,2.81,0,0,1-1.37-.36l-6.48-3.71a1.33,1.33,0,0,0-.62-.16H5.35A2.75,2.75,0,0,1,2.6,29.24V13.53a2.75,2.75,0,0,1,2.75-2.75H31.7a2.75,2.75,0,0,1,2.75,2.75V33.47a2.75,2.75,0,0,1-2.75,2.75ZM5.35,12.28A1.25,1.25,0,0,0,4.1,13.53V29.24a1.25,1.25,0,0,0,1.25,1.25H23.23a2.75,2.75,0,0,1,1.37.36l6.48,3.7a1.22,1.22,0,0,0,1.25,0A1.24,1.24,0,0,0,33,33.47V13.53a1.25,1.25,0,0,0-1.25-1.25Z"/><path d="M28.86,18.83H8.19a.75.75,0,1,1,0-1.5H28.86a.75.75,0,0,1,0,1.5Z"/><path d="M20.19,25.44h-12a.75.75,0,1,1,0-1.5h12a.75.75,0,0,1,0,1.5Z"/><path d="M64.3,36.22a2.75,2.75,0,0,1-2.75-2.75V13.53a2.75,2.75,0,0,1,2.75-2.75H90.65a2.75,2.75,0,0,1,2.75,2.75V29.24A2.75,2.75,0,0,1,90.65,32H72.77a1.33,1.33,0,0,0-.62.16l-6.48,3.71A2.81,2.81,0,0,1,64.3,36.22Zm0-23.94a1.25,1.25,0,0,0-1.25,1.25V33.47a1.24,1.24,0,0,0,.62,1.08,1.22,1.22,0,0,0,1.25,0l6.48-3.7a2.75,2.75,0,0,1,1.37-.36H90.65a1.25,1.25,0,0,0,1.25-1.25V13.53a1.25,1.25,0,0,0-1.25-1.25Z"/><path d="M87.81,18.83H67.14a.75.75,0,0,1,0-1.5H87.81a.75.75,0,0,1,0,1.5Z"/><path d="M87.81,25.44h-12a.75.75,0,0,1,0-1.5h12a.75.75,0,0,1,0,1.5Z"/><path d="M17.38,67.62c-5.34,0-9.91-6.83-9.91-12.42a9.92,9.92,0,1,1,19.83,0C27.3,60.79,22.73,67.62,17.38,67.62Zm0-20.84A8.42,8.42,0,0,0,9,55.2c0,4.81,4,10.92,8.41,10.92S25.8,60,25.8,55.2A8.43,8.43,0,0,0,17.38,46.78Z"/><path d="M78.61,67.62c-5.34,0-9.91-6.83-9.91-12.42a9.92,9.92,0,1,1,19.83,0C88.53,60.79,84,67.62,78.61,67.62Zm0-20.84A8.42,8.42,0,0,0,70.2,55.2c0,4.81,4,10.92,8.41,10.92S87,60,87,55.2A8.43,8.43,0,0,0,78.61,46.78Z"/><path d="M48.7,69.54c-8.3,0-15.41-10.67-15.41-19.41a15.41,15.41,0,1,1,30.82,0C64.11,58.87,57,69.54,48.7,69.54Zm0-33.32A13.93,13.93,0,0,0,34.79,50.13C34.79,58.19,41.21,68,48.7,68s13.91-9.85,13.91-17.91A13.93,13.93,0,0,0,48.7,36.22Z"/></g></svg>